<?xml version="1.0" encoding="utf-8"?>
<!-- Generator: Adobe Illustrator 26.3.1, SVG Export Plug-In . SVG Version: 6.00 Build 0)  -->
<svg version="1.1" id="Слой_1" xmlns="http://www.w3.org/2000/svg" xmlns:xlink="http://www.w3.org/1999/xlink" x="0px" y="0px"
	 viewBox="0 0 700 700" style="enable-background:new 0 0 700 700;" xml:space="preserve">
<g>
	<path d="M699,341.8l-14.4-91.2l-14.4,91.2h-0.1v64.3l-13-10.6v-53.7h-0.1l-14.4-91.2l-14.4,91.2h-0.1V372l-62.7-51.1v-80.5h-0.1
		l-14.4-91.2l-14.4,91.2h-0.1v56.9l-69.3-56.5l0-103.9h-0.1L453,45.7l-14.4,91.2h-0.1v80.3l-13-10.6v-69.7h-0.1l-14.4-91.2
		l-14.4,91.2h-0.1v46.2l-47.1-38.4L297,187.5v-50.7h-0.1l-14.4-91.2l-14.4,91.2h-0.1v74.2l-13,10.6l0-84.8H255l-14.4-91.2
		l-14.4,91.2h-0.1v108.3l-67.9,55.4v-60.2h-0.1l-14.4-91.2l-14.4,91.2h-0.1v83.8l-58.6,47.8v-30.1h-0.1l-14.4-91.2L42,341.8h-0.1
		v53.7l-13,10.6v-64.3l-0.1,0l-14.4-91.2L0.1,341.8H0V700h112.8v-64.6c0-17.2,13.9-31.1,31.1-31.1c17.2,0,31.1,13.9,31.1,31.1V700
		h111.8V578c0-32.5,26.3-58.8,58.8-58.8c32.5,0,58.8,26.3,58.8,58.8h0v122h115.8v-64.6c0-17.2,13.9-31.1,31.1-31.1
		c17.2,0,31.1,13.9,31.1,31.1V700h116.8L699,341.8L699,341.8z M168.3,556.8h-48.9V506c0-13.5,11-24.5,24.5-24.5
		c13.5,0,24.5,11,24.5,24.5L168.3,556.8z M168.3,444.9h-48.9v-50.8c0-13.5,11-24.5,24.5-24.5c13.5,0,24.5,11,24.5,24.5L168.3,444.9z
		 M262.1,374.1h-43v-44.7c0-11.9,8.8-26.7,21.5-36.1c12.8,9.5,21.5,24.2,21.5,36.1V374.1z M376.6,465.3h-62.2v-64.6
		c0-17.2,13.9-31.1,31.1-31.1c17.2,0,31.1,13.9,31.1,31.1L376.6,465.3L376.6,465.3z M376.6,319.2h-62.2v-64.6
		c0-17.2,12.7-38.6,31.1-52.2c18.5,13.7,31.1,35,31.1,52.2L376.6,319.2L376.6,319.2z M474.5,374.1h-43v-44.7
		c0-11.9,8.8-26.7,21.5-36.1c12.8,9.5,21.5,24.2,21.5,36.1L474.5,374.1L474.5,374.1z M575.7,556.8h-48.9V506
		c0-13.5,11-24.5,24.5-24.5c13.5,0,24.5,11,24.5,24.5L575.7,556.8z M575.7,444.9h-48.9v-50.8c0-13.5,11-24.5,24.5-24.5
		c13.5,0,24.5,11,24.5,24.5L575.7,444.9z"/>
</g>
</svg>
